HIERARCHY
ROOT Hips
{
 OFFSET 0.000000 0.000000 0.000000
 CHANNELS 6 Xposition Yposition Zposition Yrotation Xrotation Zrotation
 JOINT Chest
 {
  OFFSET 0.000000 9.585900 0.002600
  CHANNELS 3 Yrotation Xrotation Zrotation
  JOINT Chest2
  {
   OFFSET 0.000000 9.601200 -0.005300
   CHANNELS 3 Yrotation Xrotation Zrotation
   JOINT Chest3
   {
    OFFSET 0.000000 9.561800 0.000000
    CHANNELS 3 Yrotation Xrotation Zrotation
    JOINT Chest4
    {
     OFFSET 0.000000 9.552100 0.000000
     CHANNELS 3 Yrotation Xrotation Zrotation
     JOINT Neck
     {
      OFFSET 0.000000 14.453000 0.000000
      CHANNELS 3 Yrotation Xrotation Zrotation
      JOINT Head
      {
       OFFSET 0.000000 8.936500 -0.011300
       CHANNELS 3 Yrotation Xrotation Zrotation
       End Site
       {
        OFFSET 0.000000 17.073600 -0.006000
       }
      }
     }
     JOINT RightCollar
     {
      OFFSET -2.921100 9.558500 0.000000
      CHANNELS 3 Yrotation Xrotation Zrotation
      JOINT RightShoulder
      {
       OFFSET -13.519700 0.000000 0.000000
       CHANNELS 3 Yrotation Xrotation Zrotation
       JOINT RightElbow
       {
        OFFSET 0.000000 -29.696600 0.000000
        CHANNELS 3 Yrotation Xrotation Zrotation
        JOINT RightWrist
        {
         OFFSET 0.000000 -24.004700 0.000000
         CHANNELS 3 Yrotation Xrotation Zrotation
         End Site
         {
          OFFSET 0.000000 -17.728500 0.000000
         }
        }
       }
      }
     }
     JOINT LeftCollar
     {
      OFFSET 2.921100 9.558500 0.000000
      CHANNELS 3 Yrotation Xrotation Zrotation
      JOINT LeftShoulder
      {
       OFFSET 13.519700 0.000000 0.000000
       CHANNELS 3 Yrotation Xrotation Zrotation
       JOINT LeftElbow
       {
        OFFSET 0.000000 -29.696600 0.000000
        CHANNELS 3 Yrotation Xrotation Zrotation
        JOINT LeftWrist
        {
         OFFSET 0.000000 -24.004700 0.000000
         CHANNELS 3 Yrotation Xrotation Zrotation
         End Site
         {
          OFFSET 0.000000 -17.728500 0.000000
         }
        }
       }
      }
     }
    }
   }
  }
 }
 JOINT RightHip
 {
  OFFSET -7.771700 -0.012900 -0.001300
  CHANNELS 3 Yrotation Xrotation Zrotation
  JOINT RightKnee
  {
   OFFSET 0.000000 -40.869800 0.001200
   CHANNELS 3 Yrotation Xrotation Zrotation
   JOINT RightAnkle
   {
    OFFSET 0.000000 -39.717900 0.002100
    CHANNELS 3 Yrotation Xrotation Zrotation
    JOINT RightToe
    {
     OFFSET 0.000000 -4.965400 11.033500
     CHANNELS 3 Yrotation Xrotation Zrotation
     End Site
     {
      OFFSET 0.000000 -1.423100 5.872300
     }
    }
   }
  }
 }
 JOINT LeftHip
 {
  OFFSET 7.771700 -0.012900 -0.001300
  CHANNELS 3 Yrotation Xrotation Zrotation
  JOINT LeftKnee
  {
   OFFSET 0.000000 -40.869800 0.001200
   CHANNELS 3 Yrotation Xrotation Zrotation
   JOINT LeftAnkle
   {
    OFFSET 0.000000 -39.717900 0.002100
    CHANNELS 3 Yrotation Xrotation Zrotation
    JOINT LeftToe
    {
     OFFSET 0.000000 -4.965400 11.033500
     CHANNELS 3 Yrotation Xrotation Zrotation
     End Site
     {
      OFFSET 0.000000 -1.423100 5.872300
     }
    }
   }
  }
 }
}
MOTION
Frames: 11
Frame Time: 0.008333
-186.136368 58.067851 29.238275 170.151886 -48.695885 -3.202946 5.440297 21.677406 3.423186 2.834238 12.423820 1.743524 3.638402 15.519865 2.288192 2.834359 12.411963 1.748461 1.907964 15.462309 4.934584 1.775333 -6.993029 8.576502 1.405811 3.906086 0.286083 0.387830 -12.258719 -7.972352 -92.202743 -70.722391 130.333011 4.379481 23.175433 -21.386737 -9.037101 0.900256 -0.788315 2.312782 -9.029677 14.421672 68.280225 -63.227041 -114.167140 0.686154 3.162971 11.629993 3.359550 -24.006690 1.070664 -36.963611 73.206204 -37.891950 6.902090 -12.274711 9.076358 0.041113 -0.156602 0.017156 0.432180 -22.740280 13.621330 51.057323 80.115101 51.258357 3.789319 -16.337773 -15.425685 0.040247 0.134980 0.013639
-186.136516 58.066423 29.238274 170.149964 -48.676712 -3.206979 5.434051 21.662633 3.425008 2.838235 12.416487 1.744731 3.633351 15.514770 2.289047 2.836807 12.406710 1.749576 1.895287 15.444459 4.905514 1.749873 -7.072567 8.476759 1.410653 3.876973 0.268149 0.387526 -12.220276 -7.955786 -92.192974 -70.717488 130.316671 4.384431 23.179405 -21.387506 -9.047983 0.901616 -0.787443 2.326917 -9.018171 14.413898 68.294253 -63.248056 -114.177812 0.679062 3.155955 11.648568 3.358324 -24.027967 1.078058 -36.978387 73.207643 -37.909808 6.908631 -12.279611 9.075951 0.042371 -0.155036 0.019506 0.430125 -22.761474 13.628197 51.069421 80.116082 51.270874 3.787275 -16.339070 -15.424663 0.040304 0.135392 0.013681
-186.137396 58.066561 29.236629 170.151871 -48.671035 -3.207286 5.430809 21.658819 3.425801 2.837744 12.413475 1.743347 3.629265 15.506753 2.290376 2.839354 12.409850 1.749313 1.887899 15.434990 4.890557 1.717690 -7.144954 8.398189 1.406364 3.863407 0.260638 0.399196 -12.203060 -7.939982 -92.214121 -70.714201 130.337603 4.383437 23.195055 -21.400888 -9.061205 0.897097 -0.780917 2.341022 -9.008512 14.412230 68.312821 -63.263069 -114.196491 0.674600 3.152088 11.664874 3.359264 -24.035745 1.078453 -36.997860 73.213701 -37.930299 6.902598 -12.283634 9.076581 0.033086 -0.157407 0.019958 0.430623 -22.768135 13.627962 51.075395 80.116258 51.278271 3.779667 -16.335681 -15.422293 0.043864 0.130310 0.013097
-186.137983 58.066235 29.235398 170.148286 -48.662603 -3.204718 5.431404 21.651776 3.428397 2.837610 12.410932 1.742298 3.629859 15.499689 2.295578 2.837831 12.412016 1.746490 1.863649 15.395301 4.855544 1.688555 -7.179626 8.350484 1.401820 3.859664 0.254996 0.401502 -12.194928 -7.934548 -92.210325 -70.715972 130.336314 4.383726 23.192906 -21.408023 -9.075139 0.891155 -0.772720 2.349577 -8.997304 14.409127 68.332236 -63.271136 -114.212213 0.663404 3.150677 11.681447 3.362572 -24.045694 1.079556 -37.012272 73.214107 -37.943898 6.887974 -12.285423 9.079718 0.037661 -0.155436 0.019186 0.433999 -22.777093 13.628656 51.070993 80.116746 51.276489 3.774431 -16.334035 -15.420817 0.048453 0.127579 0.012788
-186.138600 58.065617 29.234334 170.144231 -48.652383 -3.200693 5.432105 21.642193 3.427683 2.838252 12.406580 1.747122 3.629112 15.493498 2.297505 2.837246 12.407126 1.748094 1.828712 15.361885 4.815872 1.652089 -7.219867 8.301740 1.396784 3.864859 0.246115 0.402106 -12.185105 -7.932516 -92.212975 -70.715182 130.343238 4.372261 23.188212 -21.416877 -9.090576 0.892235 -0.766818 2.355577 -8.987745 14.399481 68.336425 -63.269259 -114.208662 0.636979 3.150221 11.697972 3.366279 -24.057652 1.078972 -37.011263 73.219350 -37.946279 6.877671 -12.291156 9.085673 0.028083 -0.152934 0.016102 0.436485 -22.787097 13.628194 51.069809 80.119290 51.277900 3.771461 -16.335849 -15.422916 0.048111 0.127291 0.014754
-186.138146 58.065172 29.233256 170.139402 -48.643712 -3.201214 5.434813 21.633633 3.431666 2.835839 12.403155 1.748925 3.627334 15.488580 2.298682 2.836505 12.393806 1.765146 1.811131 15.364661 4.780518 1.587369 -7.296908 8.239348 1.397850 3.870657 0.219464 0.393121 -12.173354 -7.921815 -92.228373 -70.716184 130.369841 4.369228 23.185121 -21.422215 -9.099232 0.895976 -0.772771 2.358131 -8.973316 14.389423 68.345702 -63.283245 -114.211291 0.625597 3.142184 11.715118 3.368948 -24.068035 1.083732 -37.014969 73.221433 -37.951350 6.880764 -12.294714 9.087786 0.023287 -0.153153 0.014653 0.437258 -22.795620 13.633136 51.076202 80.122319 51.285631 3.774647 -16.338780 -15.424356 0.052992 0.127607 0.018471
-186.136770 58.063517 29.233345 170.143679 -48.625111 -3.214010 5.434233 21.618911 3.442333 2.834612 12.399763 1.752961 3.625872 15.484395 2.303531 2.834029 12.389058 1.765287 1.764627 15.320582 4.741132 1.528818 -7.343439 8.187765 1.407717 3.844117 0.215048 0.374468 -12.146944 -7.919294 -92.250034 -70.706470 130.398349 4.370664 23.198591 -21.424582 -9.106431 0.892157 -0.769322 2.345880 -8.964109 14.390469 68.379454 -63.311753 -114.228079 0.641809 3.135563 11.729519 3.362495 -24.087644 1.096445 -37.020287 73.221365 -37.959008 6.885376 -12.300021 9.091505 0.034897 -0.154228 0.013771 0.429489 -22.814988 13.644230 51.083307 80.124153 51.293786 3.776742 -16.344142 -15.421206 0.051428 0.132330 0.014780
-186.136319 58.063244 29.231790 170.146285 -48.618041 -3.217254 5.431477 21.615271 3.443660 2.832998 12.394764 1.767486 3.621422 15.478584 2.298470 2.833109 12.394704 1.757289 1.715212 15.267968 4.709513 1.461432 -7.391039 8.137079 1.410027 3.843163 0.213271 0.356371 -12.161689 -7.898920 -92.190612 -70.722486 130.353276 4.371145 23.195776 -21.426124 -9.108530 0.891571 -0.768036 2.340955 -8.961015 14.391216 68.398883 -63.328846 -114.241228 0.639894 3.138925 11.737851 3.358572 -24.094205 1.097185 -37.017941 73.225417 -37.957430 6.888333 -12.307967 9.094371 0.033739 -0.152828 0.010622 0.428951 -22.822043 13.646968 51.076384 80.125800 51.288885 3.774024 -16.344945 -15.422345 0.052013 0.132192 0.016891
-186.136036 58.062735 29.230249 170.142662 -48.609179 -3.213809 5.431565 21.611600 3.447406 2.834325 12.390277 1.769891 3.617933 15.471944 2.303098 2.832042 12.389954 1.760360 1.668332 15.235633 4.672276 1.377304 -7.452982 8.084117 1.412304 3.840773 0.205044 0.349263 -12.153960 -7.898657 -92.192609 -70.717474 130.361036 4.369471 23.202440 -21.433040 -9.118424 0.892116 -0.763871 2.340474 -8.959759 14.386320 68.414639 -63.330479 -114.247073 0.633957 3.147040 11.743426 3.365179 -24.110373 1.099624 -37.072260 73.231661 -38.010278 6.880438 -12.308203 9.099079 0.037180 -0.160715 0.010347 0.431668 -22.830982 13.644867 51.097316 80.124224 51.316061 3.767818 -16.345900 -15.428700 0.060201 0.130257 0.020672
-186.136291 58.060978 29.229564 170.144375 -48.589679 -3.211250 5.428700 21.597254 3.450659 2.831937 12.386203 1.763876 3.622622 15.467238 2.317063 2.831939 12.386183 1.763911 1.611613 15.199792 4.635504 1.288079 -7.514633 8.031641 1.412952 3.819216 0.207432 0.341051 -12.129626 -7.911674 -92.184507 -70.710405 130.355718 4.360834 23.198402 -21.446436 -9.134721 0.882866 -0.736782 2.349984 -8.953100 14.356319 68.419964 -63.327840 -114.247446 0.628088 3.153363 11.746662 3.367879 -24.131656 1.094294 -37.093445 73.234124 -38.030159 6.879659 -12.314600 9.103925 0.036123 -0.159626 0.008633 0.429318 -22.851648 13.635378 51.107212 80.124466 51.328502 3.784878 -16.345590 -15.432840 0.052175 0.132800 0.018967
-186.135694 58.060763 29.227562 170.145457 -48.581447 -3.211392 5.426631 21.593655 3.456281 2.831119 12.381834 1.768314 3.621687 15.461869 2.322488 2.831117 12.381702 1.768439 1.554571 15.168175 4.595807 1.196551 -7.574356 7.979578 1.402701 3.814148 0.198783 0.345330 -12.119642 -7.917317 -92.186243 -70.697421 130.360304 4.333346 23.179012 -21.496788 -9.141242 0.887789 -0.748173 2.345869 -8.960226 14.379590 68.433158 -63.300250 -114.255255 0.628880 3.155344 11.747043 3.367734 -24.139815 1.093341 -37.098082 73.235649 -38.036052 6.883432 -12.318237 9.107509 0.033581 -0.160820 0.007630 0.428002 -22.859720 13.632421 51.101762 80.123750 51.328125 3.787759 -16.340640 -15.436926 0.052257 0.129977 0.019109
